<svg xmlns="http://www.w3.org/2000/svg" width="316" height="735" viewBox="0 0 316 735" fill="none">
  <path d="M 151.0 0.0 L 138.0 5.0 L 130.0 13.0 L 127.0 18.0 L 125.0 28.0 L 126.0 42.0 L 122.0 46.0 L 123.0 59.0 L 130.0 68.0 L 135.0 80.0 L 137.0 89.0 L 136.0 100.0 L 134.0 104.0 L 124.0 112.0 L 105.0 121.0 L 90.0 124.0 L 76.0 134.0 L 68.0 147.0 L 65.0 158.0 L 65.0 190.0 L 63.0 192.0 L 60.0 207.0 L 59.0 231.0 L 45.0 266.0 L 39.0 305.0 L 31.0 335.0 L 27.0 344.0 L 12.0 357.0 L 0.0 374.0 L 5.0 376.0 L 8.0 375.0 L 14.0 368.0 L 16.0 369.0 L 6.0 398.0 L 6.0 404.0 L 9.0 406.0 L 15.0 395.0 L 17.0 395.0 L 15.0 405.0 L 16.0 413.0 L 21.0 412.0 L 24.0 404.0 L 25.0 410.0 L 29.0 412.0 L 31.0 411.0 L 36.0 394.0 L 37.0 404.0 L 41.0 405.0 L 50.0 367.0 L 51.0 350.0 L 58.0 332.0 L 82.0 285.0 L 86.0 269.0 L 88.0 247.0 L 97.0 222.0 L 104.0 251.0 L 105.0 265.0 L 101.0 281.0 L 99.0 308.0 L 96.0 314.0 L 87.0 353.0 L 87.0 361.0 L 85.0 364.0 L 84.0 431.0 L 91.0 477.0 L 98.0 504.0 L 98.0 530.0 L 95.0 545.0 L 93.0 546.0 L 93.0 555.0 L 91.0 560.0 L 91.0 593.0 L 93.0 596.0 L 93.0 604.0 L 106.0 660.0 L 107.0 686.0 L 105.0 701.0 L 93.0 710.0 L 92.0 716.0 L 97.0 722.0 L 113.0 733.0 L 131.0 732.0 L 135.0 726.0 L 133.0 705.0 L 135.0 703.0 L 135.0 689.0 L 133.0 686.0 L 131.0 665.0 L 134.0 637.0 L 136.0 633.0 L 142.0 592.0 L 142.0 576.0 L 137.0 552.0 L 137.0 543.0 L 144.0 514.0 L 145.0 452.0 L 152.0 412.0 L 153.0 386.0 L 156.0 381.0 L 159.0 381.0 L 162.0 384.0 L 163.0 410.0 L 165.0 415.0 L 165.0 426.0 L 171.0 464.0 L 171.0 511.0 L 178.0 544.0 L 174.0 572.0 L 174.0 599.0 L 183.0 650.0 L 183.0 681.0 L 180.0 689.0 L 180.0 700.0 L 182.0 706.0 L 180.0 725.0 L 183.0 731.0 L 198.0 734.0 L 207.0 730.0 L 223.0 717.0 L 222.0 709.0 L 216.0 707.0 L 210.0 701.0 L 208.0 682.0 L 210.0 655.0 L 223.0 601.0 L 225.0 583.0 L 225.0 564.0 L 220.0 538.0 L 218.0 535.0 L 217.0 512.0 L 226.0 459.0 L 229.0 450.0 L 232.0 422.0 L 231.0 370.0 L 224.0 332.0 L 220.0 317.0 L 218.0 315.0 L 217.0 306.0 L 215.0 304.0 L 215.0 287.0 L 210.0 262.0 L 212.0 245.0 L 218.0 223.0 L 227.0 246.0 L 228.0 264.0 L 234.0 286.0 L 266.0 353.0 L 265.0 365.0 L 274.0 405.0 L 279.0 403.0 L 280.0 394.0 L 285.0 411.0 L 290.0 410.0 L 291.0 401.0 L 295.0 412.0 L 299.0 413.0 L 301.0 410.0 L 297.0 396.0 L 299.0 392.0 L 304.0 404.0 L 308.0 406.0 L 310.0 402.0 L 299.0 370.0 L 301.0 369.0 L 310.0 376.0 L 313.0 376.0 L 315.0 372.0 L 301.0 354.0 L 288.0 345.0 L 285.0 338.0 L 274.0 296.0 L 273.0 282.0 L 268.0 260.0 L 257.0 236.0 L 254.0 201.0 L 250.0 187.0 L 250.0 158.0 L 246.0 145.0 L 241.0 136.0 L 228.0 125.0 L 207.0 120.0 L 188.0 110.0 L 181.0 103.0 L 178.0 97.0 L 178.0 89.0 L 184.0 70.0 L 191.0 62.0 L 194.0 51.0 L 193.0 46.0 L 189.0 42.0 L 189.0 22.0 L 184.0 11.0 L 174.0 3.0 L 165.0 0.0 Z" fill="none" stroke="#FFFFFF" stroke-width="3.5" stroke-linejoin="round" stroke-linecap="round"/>
  <path d="M 111.0 123.0 L 97.0 126.0 L 84.0 132.0 L 76.0 140.0 L 70.0 153.0 L 68.0 168.0 L 69.0 186.0 L 65.0 201.0 L 62.0 235.0 L 49.0 267.0 L 42.0 309.0 L 34.0 335.0 L 34.0 339.0 L 43.0 344.0 L 49.0 345.0 L 55.0 330.0 L 74.0 294.0 L 82.0 272.0 L 83.0 253.0 L 86.0 239.0 L 95.0 215.0 L 91.0 194.0 L 91.0 177.0 L 94.0 166.0 L 108.0 141.0 Z" fill="none" stroke="#FFFFFF" stroke-width="3.5" stroke-linejoin="round" stroke-linecap="round"/>
  <path d="M 136.0 107.0 L 128.0 114.0 L 115.0 120.0 L 114.0 137.0 L 96.0 175.0 L 96.0 198.0 L 109.0 254.0 L 109.0 270.0 L 104.0 287.0 L 103.0 305.0 L 128.0 303.0 L 153.0 310.0 L 163.0 310.0 L 188.0 303.0 L 203.0 303.0 L 212.0 305.0 L 211.0 288.0 L 206.0 269.0 L 206.0 256.0 L 218.0 205.0 L 220.0 185.0 L 218.0 171.0 L 201.0 137.0 L 200.0 120.0 L 184.0 112.0 L 177.0 106.0 L 146.0 105.0 Z" fill="none" stroke="#FFFFFF" stroke-width="3.5" stroke-linejoin="round" stroke-linecap="round"/>
  <path d="M 101.0 313.0 L 93.0 343.0 L 90.0 366.0 L 100.0 378.0 L 108.0 383.0 L 122.0 387.0 L 133.0 387.0 L 150.0 381.0 L 158.0 374.0 L 169.0 383.0 L 184.0 387.0 L 194.0 387.0 L 203.0 385.0 L 213.0 380.0 L 220.0 374.0 L 225.0 366.0 L 221.0 337.0 L 215.0 315.0 L 212.0 310.0 L 204.0 308.0 L 184.0 308.0 L 166.0 314.0 L 156.0 315.0 L 131.0 308.0 L 112.0 308.0 Z" fill="none" stroke="#FFFFFF" stroke-width="3.5" stroke-linejoin="round" stroke-linecap="round"/>
  <path d="M 205.0 123.0 L 205.0 134.0 L 208.0 143.0 L 221.0 166.0 L 224.0 177.0 L 224.0 196.0 L 221.0 216.0 L 231.0 246.0 L 234.0 273.0 L 241.0 293.0 L 258.0 325.0 L 266.0 345.0 L 279.0 341.0 L 282.0 338.0 L 273.0 308.0 L 265.0 262.0 L 254.0 239.0 L 252.0 230.0 L 251.0 206.0 L 246.0 186.0 L 245.0 154.0 L 239.0 140.0 L 230.0 131.0 Z" fill="none" stroke="#FFFFFF" stroke-width="3.5" stroke-linejoin="round" stroke-linecap="round"/>
  <path d="M 89.0 373.0 L 87.0 395.0 L 88.0 431.0 L 93.0 465.0 L 101.0 498.0 L 102.0 518.0 L 115.0 518.0 L 137.0 522.0 L 139.0 519.0 L 141.0 500.0 L 141.0 453.0 L 147.0 418.0 L 149.0 387.0 L 131.0 392.0 L 113.0 390.0 L 101.0 384.0 Z" fill="none" stroke="#FFFFFF" stroke-width="3.5" stroke-linejoin="round" stroke-linecap="round"/>
  <path d="M 102.0 522.0 L 94.0 574.0 L 96.0 597.0 L 109.0 654.0 L 111.0 679.0 L 126.0 680.0 L 128.0 679.0 L 128.0 651.0 L 138.0 592.0 L 138.0 574.0 L 133.0 551.0 L 133.0 542.0 L 137.0 527.0 L 132.0 525.0 Z" fill="none" stroke="#FFFFFF" stroke-width="3.5" stroke-linejoin="round" stroke-linecap="round"/>
  <path d="M 226.0 373.0 L 215.0 384.0 L 203.0 390.0 L 186.0 392.0 L 166.0 387.0 L 168.0 416.0 L 174.0 451.0 L 175.0 507.0 L 177.0 521.0 L 213.0 518.0 L 215.0 496.0 L 226.0 443.0 L 228.0 422.0 L 228.0 392.0 Z" fill="none" stroke="#FFFFFF" stroke-width="3.5" stroke-linejoin="round" stroke-linecap="round"/>
  <path d="M 213.0 522.0 L 178.0 527.0 L 182.0 540.0 L 182.0 554.0 L 177.0 587.0 L 188.0 661.0 L 187.0 679.0 L 189.0 680.0 L 204.0 679.0 L 207.0 650.0 L 220.0 593.0 L 221.0 567.0 Z" fill="none" stroke="#FFFFFF" stroke-width="3.5" stroke-linejoin="round" stroke-linecap="round"/>
</svg>