<svg width="560" height="620" viewBox="500 1240 500 480" xmlns="http://www.w3.org/2000/svg">
  <rect x="500" y="1240" width="500" height="480" fill="#fbfbfd"/>

  <text x="522" y="1272" font-size="18" font-family="Arial" font-weight="bold" fill="#1f2937">
    Pose landmarks + segmental CoM (frameTimeMs = 16518)
  </text>
  <text x="522" y="1294" font-size="12" font-family="Arial" fill="#4b5563">
    de Leva (1996) male segment masses / CoM ratios applied to provided landmarksPx
  </text>

  <g stroke-linecap="round" stroke-linejoin="round">
    <line x1="928.34" y1="1296.95" x2="907.45" y2="1362.5" stroke="#8fd3ff" stroke-width="5"/>
    <line x1="874.0" y1="1357.5" x2="940.9" y2="1367.5" stroke="#8fd3ff" stroke-width="5"/>
    <line x1="907.45" y1="1362.5" x2="846.45" y2="1553.95" stroke="#8fd3ff" stroke-width="5"/>
    <line x1="824.9" y1="1551.0" x2="868.0" y2="1556.9" stroke="#8fd3ff" stroke-width="5"/>

    <line x1="874.0" y1="1357.5" x2="784.1" y2="1375.0" stroke="#8fd3ff" stroke-width="5"/>
    <line x1="784.1" y1="1375.0" x2="816.8" y2="1296.7" stroke="#8fd3ff" stroke-width="5"/>
    <line x1="816.8" y1="1296.7" x2="833.3" y2="1276.7" stroke="#8fd3ff" stroke-width="5"/>

    <line x1="940.9" y1="1367.5" x2="889.9" y2="1388.9" stroke="#8fd3ff" stroke-width="5"/>
    <line x1="889.9" y1="1388.9" x2="848.9" y2="1318.7" stroke="#8fd3ff" stroke-width="5"/>
    <line x1="848.9" y1="1318.7" x2="844.8" y2="1290.2" stroke="#8fd3ff" stroke-width="5"/>

    <line x1="824.9" y1="1551.0" x2="704.3" y2="1497.7" stroke="#ff8f4d" stroke-width="8"/>
    <line x1="704.3" y1="1497.7" x2="549.5" y2="1592.4" stroke="#ff8f4d" stroke-width="8"/>

    <line x1="868.0" y1="1556.9" x2="810.7" y2="1581.0" stroke="#72df88" stroke-width="6"/>
    <line x1="810.7" y1="1581.0" x2="794.8" y2="1655.0" stroke="#72df88" stroke-width="6"/>
  </g>

  <g fill="#ffffff" stroke="#0f172a" stroke-width="1.5">
    <circle cx="928.34" cy="1296.95" r="5"/>
    <circle cx="907.45" cy="1362.5" r="5"/>
    <circle cx="874.0" cy="1357.5" r="5"/>
    <circle cx="940.9" cy="1367.5" r="5"/>
    <circle cx="784.1" cy="1375.0" r="5"/>
    <circle cx="889.9" cy="1388.9" r="5"/>
    <circle cx="816.8" cy="1296.7" r="5"/>
    <circle cx="848.9" cy="1318.7" r="5"/>
    <circle cx="833.3" cy="1276.7" r="5"/>
    <circle cx="844.8" cy="1290.2" r="5"/>
    <circle cx="824.9" cy="1551.0" r="5"/>
    <circle cx="868.0" cy="1556.9" r="5"/>
    <circle cx="704.3" cy="1497.7" r="5"/>
    <circle cx="810.7" cy="1581.0" r="5"/>
    <circle cx="549.5" cy="1592.4" r="5"/>
    <circle cx="794.8" cy="1655.0" r="5"/>
  </g>

  <g fill="#ff9f1a" stroke="#7c3b00" stroke-width="1.2">
    <circle cx="917.89" cy="1329.74" r="3.8"/>
    <circle cx="876.11" cy="1460.87" r="3.8"/>
    <circle cx="822.11" cy="1367.6" r="3.8"/>
    <circle cx="911.46" cy="1379.85" r="3.8"/>
    <circle cx="799.06" cy="1339.19" r="3.8"/>
    <circle cx="871.15" cy="1356.79" r="3.8"/>
    <circle cx="829.83" cy="1280.9" r="3.8"/>
    <circle cx="845.66" cy="1296.18" r="3.8"/>
    <circle cx="775.51" cy="1529.17" r="3.8"/>
    <circle cx="844.54" cy="1566.77" r="3.8"/>
    <circle cx="636.27" cy="1539.32" r="3.8"/>
    <circle cx="803.71" cy="1613.52" r="3.8"/>
    <circle cx="549.5" cy="1592.4" r="3.8"/>
    <circle cx="794.8" cy="1655.0" r="3.8"/>
  </g>

  <g>
    <circle cx="838.88" cy="1480.42" r="26" fill="none" stroke="#2563eb" stroke-width="4" opacity="0.85"/>
    <polygon points="838.88,1462.42 844.17,1475.18 857.96,1475.18 846.8,1483.86 852.08,1496.62 838.88,1488.9 825.68,1496.62 830.96,1483.86 819.8,1475.18 833.59,1475.18"
      fill="#ffd400" stroke="#8b1e1e" stroke-width="2.2"/>
    <text x="838.88" y="1518" font-size="14" text-anchor="middle" font-family="Arial" font-weight="bold" fill="#123b6d">
      Whole-body CoM
    </text>
  </g>

  <g font-family="Arial" font-size="11" fill="#374151">
    <text x="522" y="1682">White: provided landmarksPx</text>
    <text x="522" y="1700">Orange: each segment CoM</text>
    <text x="760" y="1682">Star: weighted whole-body CoM</text>
    <text x="760" y="1700">Head and foot are approximated due to missing tip/heel landmarks</text>
  </g>
</svg>
